<svg version="1.1" xmlns="http://www.w3.org/2000/svg" xmlns:xlink="http://www.w3.org/1999/xlink" width="111.00855" height="142.25" viewBox="0,0,111.00855,142.25"><g transform="translate(-184.49574,-112.75)"><g data-paper-data="{&quot;isPaintingLayer&quot;:true}" fill-rule="nonzero" stroke-linecap="round" stroke-miterlimit="10" stroke-dasharray="" stroke-dashoffset="0" style="mix-blend-mode: normal"><path d="M191.99575,120.25h96.00855v127.25h-96.00855z" fill="#50a7ff" stroke="#50a7ff" stroke-width="15" stroke-linejoin="round"/><path d="M194.00002,127.41667h57" fill="none" stroke="#000000" stroke-width="7.5" stroke-linejoin="miter"/><g fill="none" stroke="#000000" stroke-width="4" stroke-linejoin="miter"><path d="M193.00002,140.41667h39.5"/><path d="M193.00002,179.41667h22.5"/><path d="M192.50002,212.16667h59.83333"/></g><g fill="none" stroke="#353535" stroke-width="2.5" stroke-linejoin="miter"><path d="M192.00002,146.80556h45.66666"/><path d="M191.75002,154.55556h31"/><path d="M192.25002,162.30556h22"/><path d="M192.00002,169.30556h33.66666"/><path d="M191.75002,185.55556h16.33333"/><path d="M192.25002,193.30556h31"/><path d="M192.00002,200.80556h43.33333"/><path d="M192.75002,217.55556h28"/><path d="M192.50002,225.05556h33.66667"/><path d="M192.25002,232.55556h31"/><path d="M192.00002,240.05556h23"/></g><g fill="#ffffff" stroke="#ffffff" stroke-width="1.5" stroke-linejoin="miter"><path d="M191.50002,150.30556h12.66666"/><path d="M191.25002,158.05556h17"/><path d="M191.75002,165.80556h17"/><path d="M191.50002,172.80556h22.33334"/><path d="M191.25002,189.05556h26"/><path d="M191.75002,196.80556h17"/><path d="M191.50002,204.30556h39.33333"/><path d="M192.25002,221.05556h10.66667"/><path d="M192.00002,228.55556h17"/><path d="M191.75002,236.05556h17"/><path d="M191.50002,243.55556h24.33333"/></g></g></g></svg>