<svg version="1.1" xmlns="http://www.w3.org/2000/svg" xmlns:xlink="http://www.w3.org/1999/xlink" width="111.00855" height="142.25" viewBox="0,0,111.00855,142.25"><g transform="translate(-184.49572,-112.75)"><g data-paper-data="{&quot;isPaintingLayer&quot;:true}" fill-rule="nonzero" stroke-linecap="round" stroke-miterlimit="10" stroke-dasharray="" stroke-dashoffset="0" style="mix-blend-mode: normal"><path d="M191.99573,120.25h96.00855v127.25h-96.00855z" fill="#ffffff" stroke="#ffffff" stroke-width="15" stroke-linejoin="round"/><path d="M194,127.41667h57" fill="none" stroke="#000000" stroke-width="7.5" stroke-linejoin="miter"/><path d="M193,140.41667h39.5" fill="none" stroke="#000000" stroke-width="4" stroke-linejoin="miter"/><path d="M192,146.80556h45.66666" fill="none" stroke="#353535" stroke-width="2.5" stroke-linejoin="miter"/><path d="M191.5,150.30556h12.66666" fill="none" stroke="#696969" stroke-width="1.5" stroke-linejoin="miter"/><path d="M191.75,154.55556h31" fill="none" stroke="#353535" stroke-width="2.5" stroke-linejoin="miter"/><path d="M191.25,158.05556h17" fill="none" stroke="#696969" stroke-width="1.5" stroke-linejoin="miter"/><path d="M192.25,162.30556h22" fill="none" stroke="#353535" stroke-width="2.5" stroke-linejoin="miter"/><path d="M191.75,165.80556h17" fill="none" stroke="#696969" stroke-width="1.5" stroke-linejoin="miter"/><path d="M192,169.30556h33.66666" fill="none" stroke="#353535" stroke-width="2.5" stroke-linejoin="miter"/><path d="M191.5,172.80556h22.33334" fill="none" stroke="#696969" stroke-width="1.5" stroke-linejoin="miter"/><path d="M193,179.41667h22.5" fill="none" stroke="#000000" stroke-width="4" stroke-linejoin="miter"/><path d="M191.75,185.55556h16.33333" fill="none" stroke="#353535" stroke-width="2.5" stroke-linejoin="miter"/><path d="M191.25,189.05556h26" fill="none" stroke="#696969" stroke-width="1.5" stroke-linejoin="miter"/><path d="M192.25,193.30556h31" fill="none" stroke="#353535" stroke-width="2.5" stroke-linejoin="miter"/><path d="M191.75,196.80556h17" fill="none" stroke="#696969" stroke-width="1.5" stroke-linejoin="miter"/><path d="M192,200.80556h43.33333" fill="none" stroke="#353535" stroke-width="2.5" stroke-linejoin="miter"/><path d="M191.5,204.30556h39.33333" fill="none" stroke="#696969" stroke-width="1.5" stroke-linejoin="miter"/><path d="M192.5,212.16667h59.83333" fill="none" stroke="#000000" stroke-width="4" stroke-linejoin="miter"/><path d="M192.75,217.55556h28" fill="none" stroke="#353535" stroke-width="2.5" stroke-linejoin="miter"/><path d="M192.25,221.05556h10.66667" fill="none" stroke="#696969" stroke-width="1.5" stroke-linejoin="miter"/><path d="M192.5,225.05556h33.66667" fill="none" stroke="#353535" stroke-width="2.5" stroke-linejoin="miter"/><path d="M192,228.55556h17" fill="none" stroke="#696969" stroke-width="1.5" stroke-linejoin="miter"/><path d="M192.25,232.55556h31" fill="none" stroke="#353535" stroke-width="2.5" stroke-linejoin="miter"/><path d="M191.75,236.05556h17" fill="none" stroke="#696969" stroke-width="1.5" stroke-linejoin="miter"/><path d="M192,240.05556h23" fill="none" stroke="#353535" stroke-width="2.5" stroke-linejoin="miter"/><path d="M191.5,243.55556h24.33333" fill="none" stroke="#696969" stroke-width="1.5" stroke-linejoin="miter"/></g></g></svg>